<?xml version="1.0"?>
<svg xmlns="http://www.w3.org/2000/svg" width="270" height="51" viewBox="0 0 270 51" fill="none">
<path d="M65.7733 20.2935C66.7815 20.3138 67.7802 20.0947 68.6879 19.6541C69.5956 19.2134 70.3865 18.5637 70.9961 17.758L73.7739 20.6279C71.5698 23.1172 68.9724 24.3617 65.9817 24.3613C62.9907 24.3613 60.5276 23.414 58.5924 21.5196C57.6385 20.5913 56.8877 19.474 56.3879 18.2388C55.888 17.0036 55.6501 15.6775 55.6892 14.3451C55.6551 12.9999 55.9005 11.6624 56.4099 10.4176C56.9193 9.17287 57.6815 8.04807 58.648 7.11486C59.5983 6.16917 60.7289 5.42522 61.9723 4.92741C63.2156 4.42961 64.5462 4.18816 65.8846 4.21747C67.4045 4.19326 68.9107 4.50815 70.2943 5.13938C71.678 5.7706 72.9044 6.70237 73.885 7.86729L71.1904 10.9321C70.5994 10.1318 69.8285 9.48263 68.9404 9.03725C68.0523 8.59188 67.0719 8.36286 66.079 8.3688C64.5307 8.33754 63.0312 8.91206 61.8981 9.97064C61.3157 10.5227 60.8591 11.1944 60.5595 11.9397C60.2598 12.6851 60.1242 13.4866 60.1618 14.2894C60.125 15.0898 60.2514 15.8893 60.5333 16.639C60.8152 17.3887 61.2465 18.0729 61.801 18.6497C62.316 19.1814 62.9342 19.6016 63.6174 19.8843C64.3006 20.167 65.0343 20.3063 65.7733 20.2935Z" fill="white"/>
<path d="M77.1909 24.1385V4.66333H81.5244V20.2656H89.8029V24.1385H77.1909Z" fill="white"/>
<path d="M108.776 21.4498C106.814 23.3019 104.221 24.3332 101.526 24.3332C98.831 24.3332 96.2378 23.3019 94.2752 21.4498C93.3147 20.5246 92.5568 19.4088 92.0499 18.1736C91.543 16.9385 91.2981 15.611 91.3308 14.2757C91.2981 12.9403 91.543 11.6128 92.0499 10.3775C92.5569 9.14233 93.3147 8.02652 94.2752 7.10116C96.2377 5.2489 98.8309 4.21753 101.526 4.21753C104.221 4.21753 106.814 5.2489 108.776 7.10116C109.737 8.02654 110.495 9.14235 111.002 10.3776C111.509 11.6128 111.754 12.9403 111.721 14.2757C111.754 15.611 111.509 16.9385 111.002 18.1736C110.495 19.4088 109.737 20.5245 108.776 21.4498V21.4498ZM107.304 14.2894C107.34 12.6481 106.743 11.0562 105.637 9.84557C105.122 9.26704 104.49 8.80419 103.784 8.48729C103.078 8.17039 102.313 8.00658 101.54 8.00658C100.766 8.00658 100.001 8.17039 99.2953 8.48729C98.5892 8.80419 97.9578 9.26704 97.4423 9.84557C96.3366 11.0561 95.7394 12.6481 95.7753 14.2894C95.7377 15.927 96.3354 17.5152 97.4423 18.7195C97.9602 19.2941 98.5924 19.7534 99.2981 20.0677C100.004 20.382 100.768 20.5444 101.54 20.5444C102.312 20.5444 103.076 20.382 103.781 20.0677C104.487 19.7534 105.119 19.2941 105.637 18.7195C106.744 17.5151 107.342 15.9269 107.304 14.2894V14.2894Z" fill="white"/>
<path d="M120.527 19.1096C120.873 19.5491 121.317 19.9005 121.824 20.1353C122.33 20.3701 122.885 20.4817 123.443 20.4609C123.999 20.4826 124.553 20.3715 125.058 20.1365C125.562 19.9016 126.004 19.5496 126.347 19.1096C127.059 18.2087 127.416 16.9781 127.417 15.4179V4.66333H131.75V15.5571C131.75 18.3809 130.972 20.5494 129.417 22.0627C127.767 23.5279 125.638 24.3357 123.434 24.3331C121.23 24.3306 119.104 23.5179 117.457 22.0489C115.892 20.5262 115.109 18.3622 115.11 15.5571V4.66333H119.443V15.4179C119.443 16.9781 119.805 18.2087 120.527 19.1096Z" fill="white"/>
<path d="M151.084 7.21251C152.936 8.91196 153.862 11.2756 153.862 14.3035C153.862 17.3311 152.959 19.7272 151.154 21.4917C149.348 23.2565 146.593 24.1388 142.889 24.1385H136.25V4.66333H143.112C146.575 4.66333 149.232 5.51306 151.084 7.21251ZM147.903 18.7889C148.968 17.7859 149.5 16.3279 149.501 14.4149C149.501 12.5019 148.968 11.0299 147.903 9.99884C146.838 8.96797 145.204 8.45248 143.001 8.45237H140.584V20.2935H143.334C145.315 20.2935 146.839 19.792 147.903 18.7889V18.7889Z" fill="white"/>
<path d="M178.53 4.66333H182.865V24.1386H178.53L169.28 11.9351V24.1385H164.946V4.66333H169.002L178.53 17.2009L178.53 4.66333Z" fill="white"/>
<path d="M201.476 24.1385L199.671 19.9315H191.531L189.725 24.1385H185.114L193.503 4.66333H197.698L206.088 24.1386L201.476 24.1385ZM195.615 10.4584L193.17 16.1143H198.032L195.615 10.4584Z" fill="white"/>
<path d="M215.144 8.42453V24.1385H210.81V8.42453H205.31V4.66333H220.644V8.42453H215.144Z" fill="white"/>
<path d="M223.81 4.66333H228.144V24.1386H223.81V4.66333Z" fill="white"/>
<path d="M240.089 17.0616L245.034 4.66333H249.729L241.923 24.1386H238.256L230.449 4.66335H235.145L240.089 17.0616Z" fill="white"/>
<path d="M266.035 4.66333V8.5359H256.368V12.548H265.063V16.2535H256.368V20.2935H266.341V24.1385H252.034V4.66333H266.035Z" fill="white"/>
<path d="M9.1295 32.2903H3.1499V46.2819H17.0995V40.2851H9.1295V32.2903Z" fill="white"/>
<path d="M39.0209 32.335V40.2851H31.0937L31.05 40.2409V46.2819H44.9996V32.2903H38.9759L39.0209 32.335Z" fill="white"/>
<path d="M3.1499 18.3014H9.17405L9.1295 18.2558V10.307V10.3052H17.0558L17.0995 10.3499V4.30933H3.1499V18.3014Z" fill="white"/>
<path d="M31.05 4.30933V10.3052H39.0209V18.3014H44.9996V4.30933H31.05Z" fill="white"/>
<g opacity="0.8">
<path opacity="0.8" d="M30.3118 18.3014L22.3392 10.3052H31.0498V4.30933H17.0994V10.3499L25.027 18.3014H30.3118Z" fill="white"/>
<path opacity="0.8" d="M23.1222 32.2903H17.8383L24.4434 38.9153L25.8096 40.2851H23.079H17.0994V46.2819H31.0498V40.2409L27.0853 36.2651L23.1222 32.2903Z" fill="white"/>
<path opacity="0.8" d="M39.0207 18.3015V24.2974V27.0356L37.6549 25.6654L31.0498 19.0417V24.3416L35.0125 28.3156L38.9757 32.2904H44.9994V18.3015H39.0207Z" fill="white"/>
<path opacity="0.8" d="M17.0995 26.2494L9.17405 18.3015H3.1499V32.2904H9.1295V23.5554L17.0995 31.5489V26.2494Z" fill="white"/>
</g>
<path d="M55.092 29.8574V46.5805H266.85V29.8574H55.092ZM88.2799 36.8779V37.0044H86.1448C86.1322 36.7059 86.0542 36.4139 85.9162 36.1492C85.7881 35.9048 85.5959 35.7002 85.3603 35.5573C85.1037 35.4085 84.8109 35.3339 84.5146 35.3419C84.1732 35.3322 83.8379 35.4342 83.5594 35.6326C83.2805 35.8472 83.0696 36.1383 82.9524 36.4707C82.8006 36.9009 82.729 37.3555 82.741 37.8117V38.8585C82.7294 39.3121 82.7998 39.7641 82.9488 40.1926C83.0627 40.5239 83.2744 40.8126 83.5558 41.0204C83.8382 41.2123 84.1736 41.3103 84.5146 41.3008C84.8112 41.3085 85.1044 41.2365 85.3639 41.0923C85.5984 40.9573 85.7908 40.7595 85.9195 40.521C86.0554 40.2654 86.1324 39.9825 86.1448 39.6932H88.2799V39.9599C88.2786 40.5587 88.0992 41.1435 87.7647 41.6395C87.4268 42.1278 86.9637 42.5155 86.4243 42.7616C85.8208 43.0368 85.1637 43.1735 84.5009 43.1617C83.7317 43.1863 82.9699 43.0045 82.2942 42.635C81.6966 42.2893 81.2183 41.769 80.9232 41.1435C80.5954 40.4252 80.4354 39.6413 80.4555 38.8516V37.8117C80.4353 37.0183 80.5964 36.2308 80.9264 35.5095C81.2229 34.8831 81.7022 34.3618 82.3007 34.0147C82.9743 33.6457 83.7338 33.4639 84.5009 33.4878C85.0079 33.4826 85.5124 33.5599 85.9947 33.717C86.429 33.8584 86.8321 34.0826 87.1817 34.3772C87.5255 34.6679 87.8019 35.0303 87.9915 35.4392C88.1812 35.848 88.2796 36.2935 88.2799 36.7444L88.2799 36.8779ZM99.0006 38.8789C99.0195 39.6641 98.8523 40.4426 98.5128 41.1504C98.2024 41.7778 97.7102 42.2965 97.1007 42.6385C96.4036 42.9827 95.6369 43.1617 94.8598 43.1617C94.0828 43.1617 93.3161 42.9827 92.619 42.6385C92.0065 42.2982 91.5117 41.7792 91.2001 41.1504C90.8605 40.4426 90.6935 39.6641 90.7125 38.8789V37.7911C90.6924 36.9981 90.8594 36.2116 91.2001 35.4958C91.5105 34.8661 92.0056 34.3469 92.619 34.0078C93.3091 33.6445 94.0808 33.4655 94.8598 33.4878C95.6399 33.4642 96.4124 33.6458 97.1007 34.0147C97.7092 34.3579 98.201 34.8762 98.5128 35.5026C98.8539 36.2159 99.0211 37.0003 99.0006 37.7911V38.8789ZM111.331 42.9907H109.312V37.1686H109.202L107.245 41.5882H105.928L103.95 37.1686H103.848V42.9907H101.856V33.652H104.168L106.562 38.9748H106.638L109.032 33.652H111.331L111.331 42.9907ZM124.043 42.9907H122.024V37.1686H121.915L119.957 41.5882H118.641L116.663 37.1686H116.56V42.9907H114.569V33.652H116.881L119.275 38.9748H119.35L121.744 33.652H124.043V42.9907ZM134.961 39.7616C134.976 40.3925 134.81 41.0145 134.484 41.5541C134.157 42.0721 133.688 42.4843 133.133 42.741C132.478 43.0187 131.773 43.1617 131.061 43.1617C130.35 43.1617 129.645 43.0187 128.989 42.741C128.434 42.4856 127.964 42.0731 127.639 41.5541C127.315 41.0136 127.15 40.392 127.165 39.7616V33.652H129.402V39.5016C129.383 39.7449 129.414 39.9894 129.493 40.2201C129.573 40.4508 129.698 40.6626 129.863 40.8426C130.196 41.1307 130.622 41.2885 131.063 41.2873C131.503 41.286 131.928 41.1257 132.26 40.8357C132.424 40.6569 132.55 40.4463 132.63 40.2168C132.71 39.9874 132.742 39.744 132.724 39.5016V33.652H134.961L134.961 39.7616ZM145.757 42.9907H143.997L140.252 37.3875H140.164V42.9907H138.076V33.652H139.85L143.581 39.2005H143.67V33.652H145.757L145.757 42.9907ZM151.218 42.9907H148.974V33.652H151.218V42.9907ZM160.916 35.4923H158.378V42.9907H156.141V35.4923H153.603V33.652H160.916V35.4923ZM167.967 39.6726V42.9907H165.722V39.7273L162.605 33.652H165.061L166.834 37.5038H166.923L168.71 33.652H171.084L167.967 39.6726ZM184.919 39.6794C184.921 40.1259 184.845 40.5693 184.694 40.9895C184.544 41.4061 184.308 41.7862 184.002 42.1048C183.665 42.4472 183.258 42.7112 182.808 42.8779C181.645 43.2711 180.383 43.2553 179.23 42.8333C178.738 42.6331 178.299 42.3204 177.948 41.9201C177.606 41.5212 177.352 41.0551 177.201 40.5517C177.035 40.0005 176.953 39.4273 176.958 38.8516V37.7295C176.943 36.9666 177.106 36.2108 177.436 35.5232C177.745 34.8973 178.231 34.3771 178.835 34.0282C179.523 33.6493 180.3 33.4627 181.085 33.4878C181.633 33.4778 182.177 33.5635 182.695 33.741C183.129 33.8915 183.528 34.1276 183.869 34.4354C184.177 34.7168 184.427 35.0577 184.602 35.4376C184.772 35.8084 184.872 36.2073 184.899 36.6144H182.716C182.686 36.4369 182.626 36.2657 182.539 36.1082C182.451 35.9516 182.335 35.8125 182.197 35.6976C182.051 35.5762 181.883 35.4834 181.703 35.4241C181.497 35.3575 181.281 35.3252 181.065 35.3282C180.802 35.3138 180.54 35.3639 180.301 35.4742C180.062 35.5845 179.854 35.7516 179.694 35.961C179.345 36.4894 179.177 37.1175 179.217 37.7501V38.8448C179.21 39.2741 179.274 39.7015 179.404 40.1104C179.513 40.4605 179.724 40.7694 180.011 40.9964C180.334 41.2264 180.724 41.3409 181.12 41.3214C181.446 41.333 181.769 41.2625 182.061 41.1161C182.296 40.9943 182.49 40.8065 182.62 40.5757C182.743 40.3538 182.806 40.104 182.805 39.8504V39.44H181.181V37.8595H184.919L184.919 39.6794ZM192.83 42.9907L191.254 39.652H189.964V42.9907H187.761V33.652H191.697C192.341 33.6324 192.981 33.7624 193.566 34.0317C194.051 34.2622 194.455 34.6343 194.726 35.0991C194.998 35.5913 195.135 36.1474 195.121 36.7101C195.131 37.1437 195.04 37.5736 194.855 37.9657C194.697 38.2982 194.476 38.5968 194.204 38.8448C193.984 39.049 193.731 39.2154 193.457 39.3373L195.312 42.9907H192.83ZM205.862 38.8789C205.881 39.6641 205.714 40.4426 205.375 41.1504C205.064 41.7778 204.572 42.2965 203.963 42.6385C203.265 42.9827 202.499 43.1617 201.722 43.1617C200.945 43.1617 200.178 42.9827 199.481 42.6385C198.868 42.2982 198.373 41.7793 198.062 41.1504C197.722 40.4426 197.555 39.6641 197.574 38.8789V37.7911C197.554 36.9981 197.721 36.2117 198.062 35.4958C198.372 34.866 198.867 34.3468 199.481 34.0078C200.171 33.6445 200.943 33.4655 201.722 33.4878C202.502 33.4642 203.274 33.6459 203.963 34.0147C204.571 34.3579 205.063 34.8762 205.375 35.5026C205.716 36.2159 205.883 37.0003 205.862 37.7911V38.8789ZM216.399 39.7616C216.413 40.3925 216.247 41.0144 215.921 41.5541C215.595 42.0722 215.125 42.4844 214.57 42.741C213.915 43.0187 213.21 43.1617 212.498 43.1617C211.787 43.1617 211.082 43.0187 210.426 42.741C209.87 42.4857 209.401 42.0732 209.076 41.5541C208.752 41.0137 208.587 40.3921 208.602 39.7616V33.652H210.839V39.5016C210.82 39.7449 210.851 39.9894 210.931 40.2201C211.01 40.4508 211.135 40.6626 211.3 40.8426C211.633 41.1307 212.059 41.2885 212.5 41.2873C212.94 41.286 213.365 41.1257 213.697 40.8357C213.861 40.657 213.987 40.4464 214.067 40.2169C214.147 39.9875 214.179 39.744 214.161 39.5016V33.652H216.399L216.399 39.7616ZM226.324 38.5061C226.078 38.991 225.695 39.3929 225.223 39.6623C224.669 39.9639 224.045 40.1115 223.415 40.0899H221.751V42.9907H219.513V33.652H223.443C224.071 33.6291 224.693 33.7819 225.24 34.0932C225.707 34.3737 226.084 34.7819 226.328 35.2701C226.576 35.7727 226.703 36.3272 226.696 36.8881C226.704 37.4496 226.576 38.0045 226.324 38.5061L226.324 38.5061ZM235.909 41.7148C235.595 42.1887 235.147 42.5588 234.624 42.7786C233.957 43.0532 233.24 43.1838 232.519 43.1617C231.949 43.1738 231.38 43.0954 230.834 42.9292C230.41 42.799 230.018 42.5824 229.681 42.2929C229.394 42.0416 229.166 41.7297 229.013 41.3795C228.869 41.0452 228.787 40.6867 228.774 40.3226H230.909C230.928 40.4758 230.981 40.623 231.063 40.7535C231.152 40.8957 231.269 41.0179 231.407 41.1127C231.566 41.2215 231.741 41.3036 231.926 41.3557C232.148 41.4179 232.377 41.4478 232.608 41.4445C232.902 41.4542 233.195 41.4065 233.471 41.3042C233.672 41.2292 233.847 41.0958 233.972 40.9211C234.082 40.7586 234.139 40.5664 234.136 40.3704C234.141 40.2379 234.112 40.1062 234.051 39.9886C233.99 39.8709 233.899 39.7714 233.788 39.7C233.47 39.5125 233.121 39.3849 232.758 39.3236L231.441 39.0363C230.984 38.9505 230.545 38.7886 230.142 38.5574C229.783 38.3499 229.484 38.0515 229.276 37.692C229.058 37.2907 228.951 36.8385 228.965 36.3819C228.952 35.8295 229.113 35.287 229.426 34.8322C229.749 34.3838 230.191 34.0354 230.701 33.8266C231.302 33.5806 231.946 33.4607 232.594 33.4741C233.266 33.4524 233.935 33.5846 234.549 33.8607C235.033 34.0833 235.447 34.4347 235.746 34.8767C236.013 35.2792 236.164 35.748 236.182 36.2313H234.109C234.08 36.0418 234.004 35.8628 233.887 35.7113C233.753 35.5416 233.58 35.4076 233.382 35.3213C233.131 35.2141 232.86 35.1627 232.587 35.1708C232.219 35.1459 231.853 35.2513 231.554 35.4685C231.441 35.5571 231.349 35.6709 231.287 35.8008C231.225 35.9308 231.194 36.0735 231.196 36.2176C231.195 36.339 231.224 36.4586 231.282 36.5652C231.34 36.6717 231.424 36.7617 231.527 36.8266C231.805 37.0046 232.118 37.1233 232.444 37.1754L233.795 37.456C234.246 37.538 234.681 37.6879 235.087 37.9007C235.462 38.0975 235.779 38.3901 236.005 38.7489C236.249 39.1723 236.367 39.6564 236.346 40.1447C236.357 40.6997 236.205 41.2455 235.909 41.7148L235.909 41.7148Z" fill="white"/>
<path d="M202.69 35.5882C202.397 35.4092 202.061 35.3145 201.718 35.3145C201.375 35.3145 201.039 35.4092 200.746 35.5882C200.453 35.7899 200.226 36.0745 200.095 36.4057C199.925 36.8377 199.845 37.2998 199.859 37.7638V38.8857C199.846 39.3486 199.926 39.8095 200.095 40.2404C200.226 40.573 200.453 40.8589 200.746 41.0614C201.039 41.2404 201.375 41.3351 201.718 41.3351C202.061 41.3351 202.397 41.2404 202.69 41.0614C202.984 40.8589 203.211 40.573 203.342 40.2404C203.511 39.8094 203.591 39.3486 203.577 38.8857V37.7638C203.591 37.2998 203.511 36.8377 203.342 36.4057C203.21 36.0745 202.983 35.7899 202.69 35.5882V35.5882Z" fill="white"/>
<path d="M191.363 35.3351H189.964V38.058H191.342C191.725 38.0754 192.101 37.958 192.406 37.7261C192.548 37.6024 192.658 37.4474 192.729 37.2734C192.8 37.0995 192.83 36.9113 192.816 36.7239C192.828 36.5314 192.797 36.3385 192.725 36.1596C192.653 35.9808 192.542 35.8205 192.4 35.6908C192.109 35.449 191.74 35.3225 191.363 35.3351Z" fill="white"/>
<path d="M222.924 35.376H221.744V38.4001H222.924C223.202 38.4073 223.477 38.3462 223.726 38.2222C223.947 38.1073 224.128 37.927 224.244 37.7057C224.371 37.4524 224.433 37.1715 224.425 36.8881C224.438 36.6834 224.41 36.478 224.34 36.2849C224.271 36.0918 224.163 35.9151 224.022 35.766C223.874 35.6315 223.701 35.5278 223.512 35.4609C223.324 35.3939 223.124 35.3651 222.924 35.376V35.376Z" fill="white"/>
<path d="M95.8284 35.5882C95.5356 35.4092 95.1994 35.3145 94.8565 35.3145C94.5136 35.3145 94.1773 35.4092 93.8845 35.5882C93.5914 35.7899 93.3646 36.0745 93.2329 36.4057C93.0634 36.8377 92.9833 37.2998 92.9974 37.7638V38.8857C92.9839 39.3486 93.064 39.8094 93.2329 40.2404C93.3638 40.573 93.5907 40.8588 93.8845 41.0614C94.1773 41.2404 94.5136 41.3351 94.8565 41.3351C95.1994 41.3351 95.5356 41.2404 95.8284 41.0614C96.1222 40.8588 96.3491 40.573 96.48 40.2404C96.649 39.8094 96.7289 39.3486 96.7152 38.8857V37.7638C96.7295 37.2998 96.6496 36.8377 96.4801 36.4057C96.3484 36.0745 96.1216 35.7899 95.8284 35.5882V35.5882Z" fill="white"/>
</svg>
